<?xml version="1.0" encoding="utf-8"?>
<!-- Generator: Adobe Illustrator 19.2.1, SVG Export Plug-In . SVG Version: 6.00 Build 0)  -->
<svg version="1.1" id="Layer_1" xmlns="http://www.w3.org/2000/svg" xmlns:xlink="http://www.w3.org/1999/xlink" x="0px" y="0px"
	 viewBox="0 0 851 198" style="enable-background:new 0 0 851 198;" xml:space="preserve">
<style type="text/css">
	.st0{fill:none;stroke:#000000;stroke-width:4.1717;stroke-miterlimit:10;}
	.st1{fill:#58595B;}
	.st2{fill:#808184;}
	.st3{fill:none;stroke:#BFD730;stroke-width:2.7284;stroke-miterlimit:10;}
	.st4{fill:none;stroke:#F89520;stroke-width:2.7284;stroke-miterlimit:10;}
	.st5{fill:none;stroke:#FBEE28;stroke-width:2.7284;stroke-miterlimit:10;}
	.st6{fill:none;stroke:#922A8E;stroke-width:2.7284;stroke-miterlimit:10;}
	.st7{fill:none;stroke:#DCF2FD;stroke-width:2.7284;stroke-miterlimit:10;}
	.st8{fill:none;stroke:#F49BC0;stroke-width:2.7284;stroke-miterlimit:10;}
	.st9{fill:#BED730;}
</style>
<g>
	<g>
		<path d="M537.3,95.7c-2.8,11.4-9.6,20-22.5,20c-17.6,0-24.7-17-24.7-31.9c0-15.7,7.7-30.7,25.4-30.7c12.2,0,19.4,8.1,21.9,19.4
			l-7.2,1.4c-2.1-7.7-5.9-14.5-15-14.5c-13.2,0-16.7,14.5-16.7,24.9c0,4.8,0.8,10.7,2.8,15.2c2.5,5.4,7.2,9.8,13.5,9.8
			c9.2,0,13.7-7,15.7-15L537.3,95.7z"/>
		<path d="M565.4,68.5c-13.5,0-20.7,10.9-20.7,23.3c0,11.8,5.9,23.7,19.6,23.7c13.7,0,20.9-11.1,20.9-23.7
			C585.2,79.9,578.6,68.5,565.4,68.5z M575.3,103.3c-2.2,4-5.8,6.5-10.3,6.5c-4,0-8-2.2-9.9-5.6c-1.9-3.6-2.6-8.1-2.6-12.4
			c0-3.7,0.5-8,2.2-11.3c1.9-3.9,5.9-6.3,10.2-6.3c3.9,0,7.6,2.1,9.8,5.4c2.3,3.7,2.8,8.1,2.8,12.4
			C577.5,95.7,577.1,99.7,575.3,103.3z"/>
		<rect x="596.3" y="53.7" width="7" height="60.9"/>
		<path d="M645.6,114.6v-8.9h-0.1c-2.2,5.6-7.6,9.9-13.8,9.9c-4.4,0-8.7-1.6-11.4-5c-3-3.7-3.6-8.9-3.6-13.5V69.6h7v27.4
			c0,2.6,0.1,5.9,1.5,8.1c1.4,2.5,4.4,4.3,7.3,4.3c3.7,0,7-1.7,9.2-4.7c2.7-3.4,3.4-7,3.4-11.3V69.6h7v45.1L645.6,114.6L645.6,114.6
			z"/>
		<path d="M670.6,69.6v8.6h0.1c2.3-5.4,7.2-9.9,13.5-9.9c6.6,0,11.3,4.4,12.7,10.7c2.5-6.2,7.6-10.7,14.6-10.7
			c4.7,0,9.1,2.6,11.3,6.5c2.2,3.7,2.1,8.7,2.1,12.8v26.9h-7V87.7c0-3,0.1-6.2-1.2-8.9c-1.5-2.9-4.4-4.7-7.6-4.7
			c-3.4,0-6.6,2.1-8.7,5c-2.6,3.7-2.5,7-2.5,11.1v24.3h-7V86.1c0-2.5-0.1-5.4-1.5-7.6c-1.6-2.7-4.5-4.4-7.6-4.4
			c-3.1,0-6.3,2.1-8.1,4.4c-2.3,2.9-2.7,6.6-2.7,10.3v25.9h-7v-45H670.6z"/>
		<path d="M770.7,75.8c-3-4.4-8.3-7.3-13.8-7.3c-6.3,0-10.3,3.3-13.2,8.5h-0.4V53.7h-7v60.9h3.4l2.6-7.7c2.8,5,8,8.5,13.8,8.5
			c13.4,0,18.9-12.5,18.9-24.1C774.9,86.2,773.7,80.2,770.7,75.8z M755.7,109.9c-3.8,0-7.6-2.1-9.8-5.1c-1.7-2.7-2.5-5.9-2.6-9.1
			v-8.1c0.1-6.6,5.2-13.7,12.4-13.7c9.5,0,11.8,11.1,11.8,18.6S764.9,109.9,755.7,109.9z"/>
		<rect x="785.6" y="53.7" width="7.6" height="7.8"/>
		<rect x="786" y="69.6" width="7" height="45.1"/>
		<path d="M843.1,105.1V87.6c0-5.1,0-10.9-3.7-14.8c-3.4-3.9-8.9-4.4-13.8-4.4c-8.1,0-18.2,2.9-19.4,12.4l6.5,1.1
			c1.2-6.2,6.6-8,12.4-8c8,0,11.4,3,11.4,10.9v1.9h-5.9c-5.6,0-12.2,0.3-17.2,2.7c-5,2.2-8.3,7-8.3,12.4c0,8.9,7.2,13.7,15.7,13.7
			c7.2,0,12.5-2.8,15.7-9.2l0.8,8.4h7C843.3,111.7,843.1,108.4,843.1,105.1z M836.4,94.8c0,8-5.8,15.3-14.3,15.3c-5,0-9.8-2.3-9.8-8
			c0-9.2,11.1-10.3,18.2-10.3h5.8L836.4,94.8L836.4,94.8z"/>
		<path d="M504.4,137.6c0-1.5-0.5-2.8-2.2-2.8c-2.2,0-2.3,2.8-2.3,4.4c0,1.8,0.3,4,2.5,4c1.5,0,2.1-1.2,2.2-2.5l2.9,0.3
			c-0.4,2.9-2.3,4.8-5.4,4.8c-3.9,0-5.8-3.2-5.8-6.7s1.9-6.7,5.9-6.7c3.3,0,4.9,1.9,5.2,5L504.4,137.6z"/>
		<path d="M532.3,134.4c-1.1-1.5-2.5-1.9-4.1-1.9c-3.9,0-5.6,3.2-5.6,6.7c0,1.6,0.4,3.3,1.4,4.7c1,1.5,2.5,2.1,4.1,2.1
			s3.3-0.7,4.3-2.2c0.8-1.2,1.2-3,1.2-4.5C533.7,137.5,533.3,135.7,532.3,134.4z M530.1,141.9c-0.4,1-0.8,1.5-1.9,1.5
			c-2.2,0-2.5-2.6-2.5-4.3c0-0.8,0.1-1.9,0.4-2.7c0.4-1,1-1.5,1.9-1.5s1.5,0.4,1.8,1.2c0.4,0.8,0.5,1.9,0.5,2.9
			C530.6,139.9,530.4,141,530.1,141.9z"/>
		<polygon points="557.6,143 557.6,145.5 549.3,145.5 549.3,132.6 552.3,132.6 552.3,143 		"/>
		<polygon points="580.7,143 580.7,145.5 572.4,145.5 572.4,132.6 575.5,132.6 575.5,143 		"/>
		<polygon points="598.6,135.1 598.6,137.7 603.6,137.7 603.6,140.1 598.6,140.1 598.6,143.1 604.8,143.1 604.8,145.5 595.6,145.5 
			595.6,132.6 604.8,132.6 604.8,135.1 		"/>
		<path d="M625.1,141v-2.4h5.4v7h-1.4l-0.5-1.5c-1,1.2-2.1,1.7-3.6,1.7c-3.8,0-5.4-3.2-5.4-6.6c0-3.6,1.7-6.9,5.6-6.9
			c2.8,0,4.8,1.7,5.1,4.4l-2.9,0.4c-0.1-1.4-0.8-2.5-2.3-2.5c-2.2,0-2.5,2.8-2.5,4.4c0,1.7,0.5,4,2.6,4c1.4,0,2.2-1,2.2-2.2h-2.5
			v0.1H625.1z"/>
		<polygon points="649.4,135.1 649.4,137.7 654.4,137.7 654.4,140.1 649.4,140.1 649.4,143.1 655.7,143.1 655.7,145.5 646.4,145.5 
			646.4,132.6 655.7,132.6 655.7,135.1 		"/>
		<path d="M690.4,137.6c0-1.5-0.5-2.8-2.2-2.8c-2.2,0-2.3,2.8-2.3,4.4c0,1.8,0.3,4,2.5,4c1.5,0,2.1-1.2,2.2-2.5l2.9,0.3
			c-0.4,2.9-2.3,4.8-5.4,4.8c-3.9,0-5.8-3.2-5.8-6.7s1.9-6.7,5.9-6.7c3.3,0,4.9,1.9,5.2,5L690.4,137.6z"/>
		<polygon points="719.3,145.5 716.1,145.5 716.1,140.1 712.1,140.1 712.1,145.5 709.1,145.5 709.1,132.6 712.1,132.6 712.1,137.7 
			716.1,137.7 716.1,132.6 719.3,132.6 		"/>
		<rect x="735.4" y="132.6" width="3" height="12.9"/>
		<path d="M762,137.6c0-1.5-0.5-2.8-2.2-2.8c-2.2,0-2.3,2.8-2.3,4.4c0,1.8,0.3,4,2.5,4c1.5,0,2.1-1.2,2.2-2.5l2.9,0.3
			c-0.4,2.9-2.3,4.8-5.4,4.8c-3.9,0-5.8-3.2-5.8-6.7s1.9-6.7,5.9-6.7c3.3,0,4.9,1.9,5.2,5L762,137.6z"/>
		<path d="M787.5,132.6H784l-4.1,12.9h2.7l0.8-2.7h4.1l0.8,2.7h3.3L787.5,132.6z M784,140.5l1.4-4.5l1.4,4.5H784z"/>
		<path d="M811.5,141v-2.4h5.4v7h-1.4l-0.5-1.5c-1,1.2-2.1,1.7-3.6,1.7c-3.8,0-5.4-3.2-5.4-6.6c0-3.6,1.7-6.9,5.6-6.9
			c2.8,0,4.7,1.7,5.1,4.4l-2.9,0.4c-0.1-1.4-0.8-2.5-2.3-2.5c-2.2,0-2.5,2.8-2.5,4.4c0,1.7,0.5,4,2.6,4c1.4,0,2.2-1,2.2-2.2
			L811.5,141L811.5,141L811.5,141z"/>
		<path d="M842,134.4c-1.1-1.5-2.5-1.9-4.1-1.9c-3.9,0-5.6,3.2-5.6,6.7c0,1.6,0.4,3.3,1.4,4.7c1,1.5,2.5,2.1,4.1,2.1
			s3.3-0.7,4.3-2.2c0.8-1.2,1.2-3,1.2-4.5C843.4,137.5,842.9,135.7,842,134.4z M839.8,141.9c-0.4,1-0.8,1.5-1.9,1.5
			c-2.2,0-2.5-2.6-2.5-4.3c0-0.8,0.1-1.9,0.4-2.7c0.4-1,1-1.5,1.9-1.5s1.5,0.4,1.8,1.2c0.4,0.8,0.5,1.9,0.5,2.9
			C840.2,139.9,840.1,141,839.8,141.9z"/>
	</g>
	<line class="st0" x1="435.9" y1="28.1" x2="435.9" y2="172.8"/>
	<g>
		<g>
			<path class="st1" d="M119.3,83.8c-1.7,0-3.2-0.3-4.6-0.9s-2.6-1.4-3.5-2.5s-1.8-2.5-2.3-4c-0.5-1.6-0.8-3.4-0.8-5.4
				c0-1.8,0.3-3.4,0.8-4.9s1.3-2.9,2.3-4s2.2-2,3.6-2.7s3-1,4.7-1c2.7,0,5,0.8,6.7,2.3s2.9,3.8,3.4,6.8l-5.1,0.5
				c-0.2-1.8-0.8-3.1-1.5-4c-0.8-0.9-1.9-1.4-3.3-1.4c-1.8,0-3.2,0.7-4.1,2.2c-0.9,1.5-1.4,3.6-1.4,6.4c0,1.5,0.1,2.9,0.4,4
				s0.6,2,1.1,2.7s1.1,1.2,1.7,1.6c0.7,0.3,1.4,0.5,2.2,0.5c1.4,0,2.5-0.4,3.3-1.3c0.8-0.8,1.3-2.1,1.7-3.8l5,0.4
				c-0.2,1.4-0.6,2.7-1.2,3.7c-0.6,1.1-1.3,2-2.2,2.7c-0.9,0.7-1.9,1.3-3.1,1.6C122,83.7,120.7,83.8,119.3,83.8z"/>
			<path class="st1" d="M144.3,83.8c-1.7,0-3.3-0.3-4.7-0.9s-2.7-1.5-3.7-2.6s-1.8-2.5-2.4-4c-0.6-1.6-0.9-3.3-0.9-5.2
				c0-1.9,0.3-3.7,0.9-5.2c0.6-1.6,1.4-2.9,2.5-4s2.3-2,3.8-2.6c1.4-0.6,3-0.9,4.7-0.9c1.8,0,3.4,0.3,4.9,0.9
				c1.5,0.6,2.7,1.5,3.8,2.6c1,1.1,1.9,2.5,2.4,4c0.6,1.6,0.9,3.3,0.9,5.2c0,1.9-0.3,3.6-0.9,5.1c-0.6,1.6-1.4,2.9-2.5,4
				s-2.3,2-3.8,2.6C147.6,83.5,146,83.8,144.3,83.8z M144.4,79.8c0.9,0,1.6-0.2,2.3-0.5s1.3-0.9,1.8-1.6s0.9-1.6,1.2-2.7
				s0.4-2.4,0.4-3.9s-0.1-2.7-0.4-3.8c-0.3-1.1-0.7-2-1.2-2.7c-0.5-0.7-1.1-1.2-1.8-1.6c-0.7-0.3-1.5-0.5-2.4-0.5s-1.6,0.2-2.3,0.5
				s-1.3,0.9-1.8,1.6s-0.9,1.6-1.2,2.7s-0.4,2.3-0.4,3.8c0,2.9,0.5,5.1,1.5,6.6C141.2,79.1,142.6,79.8,144.4,79.8z"/>
			<path class="st1" d="M161.3,83.4V58.8h5.5v4.3c0.4-0.6,0.8-1.1,1.4-1.7c0.5-0.6,1.1-1.1,1.8-1.6s1.5-0.8,2.4-1.1s1.9-0.4,2.9-0.4
				c1.2,0,2.3,0.2,3.2,0.6c0.9,0.4,1.6,0.9,2.2,1.6c0.6,0.7,1,1.5,1.3,2.5s0.4,2.1,0.4,3.3v17.1h-5.8V66.3c0-1.2-0.3-2.1-0.9-2.7
				c-0.6-0.6-1.4-0.9-2.5-0.9c-0.7,0-1.3,0.1-1.9,0.3c-0.6,0.2-1.1,0.5-1.6,0.9s-1,0.8-1.4,1.3s-0.8,1-1.2,1.6v16.6H161.3z"/>
			<path class="st1" d="M194.6,83.4l-8.9-24.6h6l4.9,14.3c0,0.1,0.1,0.3,0.2,0.6c0.1,0.4,0.3,0.8,0.4,1.2c0.1,0.4,0.3,0.8,0.4,1.2
				c0.1,0.4,0.2,0.6,0.2,0.7c0-0.1,0.1-0.3,0.2-0.7c0.1-0.4,0.2-0.8,0.4-1.2c0.1-0.4,0.3-0.8,0.4-1.2c0.1-0.4,0.2-0.6,0.2-0.6
				l5.1-14.3h4.8L200,83.4H194.6z"/>
			<path class="st1" d="M222.4,83.8c-1.8,0-3.4-0.3-4.8-0.9c-1.5-0.6-2.7-1.4-3.8-2.5s-1.9-2.4-2.5-3.9s-0.9-3.2-0.9-5
				c0-2.1,0.3-3.9,0.9-5.5c0.6-1.6,1.5-3,2.6-4.1s2.4-2,3.8-2.6c1.5-0.6,3-0.9,4.7-0.9c1.8,0,3.4,0.3,4.8,0.9
				c1.4,0.6,2.6,1.4,3.5,2.5c1,1.1,1.7,2.3,2.2,3.8s0.8,3.1,0.9,4.9c0,0.3,0,0.5,0,0.8s0,0.5,0,0.8h-17.6c0,1.3,0.2,2.5,0.5,3.5
				s0.8,1.8,1.3,2.4c0.6,0.6,1.3,1.1,2.1,1.4s1.7,0.5,2.7,0.5c1.3,0,2.4-0.3,3.4-0.9s1.8-1.7,2.3-3.2l5,0.6c-0.4,1.2-1,2.2-1.7,3.1
				s-1.5,1.7-2.5,2.4c-0.9,0.6-2,1.1-3.2,1.5C225.1,83.6,223.8,83.8,222.4,83.8z M228.1,68.5c-0.2-1.9-0.7-3.5-1.7-4.6
				c-0.9-1.1-2.3-1.7-4-1.7c-0.8,0-1.5,0.1-2.2,0.4c-0.7,0.3-1.3,0.7-1.8,1.2s-1,1.2-1.3,2s-0.6,1.7-0.7,2.7H228.1z"/>
			<path class="st1" d="M238.8,83.4V58.8h5.5V64c0.4-0.7,0.8-1.4,1.3-2.1c0.5-0.7,1.1-1.3,1.7-1.8c0.6-0.5,1.4-1,2.2-1.3
				s1.7-0.5,2.7-0.5c0.3,0,0.5,0,0.8,0c0.2,0,0.5,0,0.7,0.1v4.8c-0.1,0-0.2,0-0.3,0s-0.3,0-0.4,0c-0.2,0-0.3,0-0.5,0s-0.3,0-0.3,0
				c-1.6,0-3,0.4-4.2,1.3c-1.2,0.9-2.3,2.1-3.1,3.7v15.1h-6.1L238.8,83.4L238.8,83.4z"/>
			<path class="st1" d="M266.7,92.4c-2,0-3.7-0.1-5.3-0.3c-1.5-0.2-2.8-0.6-3.9-1c-1-0.5-1.8-1.1-2.4-1.8c-0.5-0.7-0.8-1.6-0.8-2.6
				c0-0.6,0.1-1.2,0.4-1.7c0.2-0.5,0.6-1,1-1.4c0.4-0.4,1-0.8,1.6-1.1c0.6-0.3,1.3-0.5,2-0.7c-1.3-0.4-2.3-0.9-2.8-1.6
				c-0.6-0.7-0.8-1.6-0.8-2.6c0-1.1,0.4-2,1.1-2.7c0.8-0.8,1.8-1.4,3.2-1.7c-1.4-0.6-2.4-1.5-3-2.6s-0.9-2.4-0.9-3.9
				c0-1.4,0.3-2.6,0.8-3.6c0.6-1,1.3-1.9,2.2-2.6c0.9-0.7,2-1.2,3.2-1.5s2.4-0.5,3.7-0.5c0.4,0,0.8,0,1.3,0.1c0.5,0,1,0.1,1.4,0.2
				s1,0.2,1.4,0.4c0.5,0.1,0.9,0.3,1.3,0.5c0.3-1.5,1-2.6,2-3.3s2.5-1,4.3-1c0.1,0,0.2,0,0.4,0c0.2,0,0.4,0,0.4,0v4.2
				c-0.3-0.1-0.6-0.1-0.9-0.1c-1.1,0-1.9,0.1-2.5,0.4c-0.6,0.3-1,0.8-1.3,1.6c0.6,0.5,1.1,1.2,1.6,2.1c0.4,0.9,0.6,2,0.6,3.2
				s-0.2,2.3-0.6,3.4c-0.4,1-1.1,1.9-1.9,2.6s-1.9,1.3-3.1,1.7c-1.2,0.4-2.7,0.6-4.3,0.6c-0.3,0-0.7,0-1,0s-0.7-0.1-1-0.1
				s-0.6-0.1-0.8-0.1c-0.2,0-0.4-0.1-0.5-0.1c-0.3,0-0.5,0-0.8,0.1s-0.5,0.2-0.7,0.4c-0.2,0.2-0.4,0.4-0.5,0.6
				c-0.1,0.3-0.2,0.5-0.2,0.9c0,0.5,0.2,0.8,0.5,1.1c0.3,0.3,0.8,0.5,1.4,0.6s1.4,0.2,2.4,0.3c0.9,0,2,0.1,3.3,0.1
				c2.1,0,3.8,0.2,5.2,0.4c1.4,0.3,2.5,0.6,3.4,1.1c0.8,0.5,1.4,1.2,1.8,1.9c0.3,0.8,0.5,1.7,0.5,2.9c0,1.2-0.2,2.2-0.7,3.2
				c-0.5,0.9-1.3,1.8-2.3,2.4c-1,0.7-2.4,1.2-3.9,1.5C270.8,92.2,268.9,92.4,266.7,92.4z M266.1,89c2.6,0,4.5-0.3,5.9-0.9
				s2.1-1.5,2.1-2.6c0-0.6-0.2-1-0.5-1.3s-0.9-0.6-1.8-0.8s-2.1-0.3-3.7-0.4s-3.6-0.2-6.2-0.2c-0.9,0.3-1.6,0.6-2.1,1.1
				s-0.8,1.1-0.8,2c0,1.1,0.6,1.8,1.7,2.4C262,88.7,263.7,89,266.1,89z M266.2,71.3c1.5,0,2.7-0.4,3.5-1.3c0.8-0.8,1.2-2,1.2-3.5
				c0-0.6-0.1-1.3-0.3-1.8s-0.5-1.1-0.9-1.5s-0.9-0.7-1.5-1c-0.6-0.2-1.3-0.4-2-0.4s-1.4,0.1-2,0.3s-1.1,0.5-1.4,0.9
				c-0.4,0.4-0.7,0.9-0.9,1.4c-0.2,0.6-0.3,1.2-0.3,1.8c0,1.6,0.4,2.8,1.2,3.6C263.7,70.9,264.8,71.3,266.2,71.3z"/>
			<path class="st1" d="M292.8,83.8c-1.8,0-3.4-0.3-4.9-0.9s-2.7-1.4-3.8-2.5c-1.1-1.1-1.9-2.4-2.5-3.9s-0.9-3.2-0.9-5
				c0-2.1,0.3-3.9,0.9-5.5s1.5-3,2.6-4.1s2.4-2,3.8-2.6c1.5-0.6,3-0.9,4.7-0.9c1.8,0,3.4,0.3,4.8,0.9c1.4,0.6,2.6,1.4,3.5,2.5
				c1,1.1,1.7,2.3,2.2,3.8s0.8,3.1,0.9,4.9c0,0.3,0,0.5,0,0.8s0,0.5,0,0.8h-17.6c0,1.3,0.2,2.5,0.5,3.5s0.8,1.8,1.3,2.4
				c0.6,0.6,1.3,1.1,2.1,1.4c0.8,0.3,1.7,0.5,2.7,0.5c1.3,0,2.4-0.3,3.4-0.9s1.8-1.7,2.3-3.2l5,0.6c-0.4,1.2-1,2.2-1.7,3.1
				s-1.5,1.7-2.5,2.4c-0.9,0.6-2,1.1-3.2,1.5C295.6,83.6,294.3,83.8,292.8,83.8z M298.6,68.5c-0.2-1.9-0.7-3.5-1.7-4.6
				c-0.9-1.1-2.3-1.7-4-1.7c-0.8,0-1.5,0.1-2.2,0.4c-0.7,0.3-1.3,0.7-1.8,1.2s-1,1.2-1.3,2s-0.6,1.7-0.7,2.7H298.6z"/>
			<path class="st1" d="M309.3,83.4V58.8h5.5v4.3c0.4-0.6,0.8-1.1,1.4-1.7c0.5-0.6,1.1-1.1,1.8-1.6c0.7-0.5,1.5-0.8,2.4-1.1
				s1.9-0.4,2.9-0.4c1.2,0,2.3,0.2,3.2,0.6c0.9,0.4,1.6,0.9,2.2,1.6c0.6,0.7,1,1.5,1.3,2.5s0.4,2.1,0.4,3.3v17.1h-5.8V66.3
				c0-1.2-0.3-2.1-0.8-2.7c-0.6-0.6-1.4-0.9-2.5-0.9c-0.7,0-1.3,0.1-1.9,0.3s-1.1,0.5-1.6,0.9s-1,0.8-1.4,1.3s-0.8,1-1.2,1.6v16.6
				H309.3z"/>
			<path class="st1" d="M346.6,83.8c-1.7,0-3.2-0.3-4.6-0.9s-2.6-1.4-3.5-2.5c-1-1.1-1.8-2.5-2.3-4c-0.5-1.6-0.8-3.4-0.8-5.4
				c0-1.8,0.3-3.4,0.8-4.9s1.3-2.9,2.3-4s2.2-2,3.6-2.7s3-1,4.7-1c2.7,0,5,0.8,6.7,2.3s2.9,3.8,3.4,6.8l-5.1,0.5
				c-0.2-1.8-0.8-3.1-1.5-4c-0.8-0.9-1.9-1.4-3.3-1.4c-1.8,0-3.2,0.7-4.1,2.2c-0.9,1.5-1.4,3.6-1.4,6.4c0,1.5,0.1,2.9,0.4,4
				s0.6,2,1.1,2.7s1.1,1.2,1.7,1.6c0.7,0.3,1.4,0.5,2.2,0.5c1.4,0,2.5-0.4,3.3-1.3c0.8-0.8,1.3-2.1,1.7-3.8l5,0.4
				c-0.2,1.4-0.6,2.7-1.2,3.7c-0.6,1.1-1.3,2-2.2,2.7c-0.9,0.7-1.9,1.3-3.1,1.6C349.3,83.7,348,83.8,346.6,83.8z"/>
			<path class="st1" d="M371.9,83.8c-1.8,0-3.4-0.3-4.8-0.9c-1.5-0.6-2.7-1.4-3.8-2.5c-1.1-1.1-1.9-2.4-2.5-3.9s-0.9-3.2-0.9-5
				c0-2.1,0.3-3.9,0.9-5.5s1.5-3,2.6-4.1s2.4-2,3.8-2.6c1.5-0.6,3-0.9,4.7-0.9c1.8,0,3.4,0.3,4.8,0.9c1.4,0.6,2.6,1.4,3.5,2.5
				c1,1.1,1.7,2.3,2.2,3.8s0.8,3.1,0.9,4.9c0,0.3,0,0.5,0,0.8s0,0.5,0,0.8h-17.6c0,1.3,0.2,2.5,0.5,3.5s0.8,1.8,1.3,2.4
				c0.6,0.6,1.3,1.1,2.1,1.4c0.8,0.3,1.7,0.5,2.7,0.5c1.3,0,2.4-0.3,3.4-0.9s1.8-1.7,2.3-3.2l5,0.6c-0.4,1.2-1,2.2-1.7,3.1
				s-1.5,1.7-2.5,2.4c-0.9,0.6-2,1.1-3.2,1.5C374.6,83.6,373.3,83.8,371.9,83.8z M377.6,68.5c-0.2-1.9-0.7-3.5-1.7-4.6
				c-0.9-1.1-2.3-1.7-4-1.7c-0.8,0-1.5,0.1-2.2,0.4c-0.7,0.3-1.3,0.7-1.8,1.2s-1,1.2-1.3,2s-0.6,1.7-0.7,2.7H377.6z"/>
			<path class="st2" d="M119.1,142.5c-2.2,0-4.1-0.4-5.7-1.2s-3-1.9-4.2-3.4c-1.1-1.5-2-3.3-2.5-5.4c-0.6-2.1-0.9-4.5-0.9-7.2
				c0-2.4,0.3-4.7,1-6.9c0.6-2.2,1.6-4,2.7-5.6c1.2-1.6,2.6-2.9,4.4-3.8c1.7-0.9,3.6-1.4,5.8-1.4c1.5,0,2.8,0.2,3.9,0.6
				s2.1,0.9,3,1.4c0.9,0.6,1.6,1.2,2.2,1.8c0.6,0.7,1.1,1.3,1.4,1.8V96.1h3.1V142h-3.1v-5.4c-1.3,1.9-2.9,3.4-4.7,4.5
				C123.6,142,121.5,142.5,119.1,142.5z M119.3,139.9c1.5,0,2.8-0.2,3.9-0.6c1.2-0.4,2.2-1,3.1-1.7s1.7-1.6,2.3-2.6s1.2-2.1,1.6-3.2
				v-14.2c-0.5-1-1-1.9-1.6-2.7c-0.6-0.9-1.3-1.6-2.1-2.3c-0.8-0.7-1.8-1.2-2.9-1.6s-2.4-0.6-3.9-0.6c-1.7,0-3.3,0.4-4.6,1.1
				c-1.3,0.7-2.4,1.7-3.3,3s-1.6,2.9-2,4.7c-0.4,1.8-0.7,3.9-0.7,6.1c0,4.9,0.9,8.6,2.6,11C113.5,138.7,116,139.9,119.3,139.9z"/>
			<path class="st2" d="M156.7,142.5c-2.2,0-4.3-0.4-6.1-1.2s-3.4-2-4.7-3.4c-1.3-1.5-2.3-3.3-3-5.3c-0.7-2.1-1.1-4.4-1.1-6.8
				c0-2.9,0.4-5.5,1.2-7.7c0.8-2.3,1.9-4.2,3.2-5.7c1.4-1.6,2.9-2.7,4.8-3.5s3.8-1.2,5.8-1.2s3.8,0.4,5.4,1.1c1.6,0.8,3,1.8,4.2,3.2
				c1.2,1.3,2.1,2.9,2.8,4.8c0.7,1.8,1.1,3.9,1.3,6.1c0,0.4,0.1,0.8,0,1.2c0,0.4,0,0.8,0,1.2H145c0.1,4.9,1.1,8.6,3.1,11.1
				s4.9,3.8,8.7,3.8c1,0,1.9-0.1,2.9-0.4c1-0.2,1.9-0.7,2.8-1.2c0.9-0.6,1.7-1.3,2.5-2.3s1.4-2.2,2-3.6l3.1,0.5
				c-0.6,1.7-1.4,3.1-2.3,4.3c-0.9,1.2-1.9,2.2-3.1,3c-1.1,0.8-2.4,1.4-3.7,1.8C159.6,142.3,158.2,142.5,156.7,142.5z M167.4,122.4
				c-0.2-1.9-0.5-3.6-1.1-5.1c-0.5-1.5-1.3-2.8-2.2-3.8s-2-1.8-3.2-2.4c-1.2-0.5-2.6-0.8-4.2-0.8c-1.6,0-3,0.3-4.4,0.9
				c-1.3,0.6-2.5,1.5-3.5,2.5c-1,1.1-1.8,2.4-2.4,3.8c-0.6,1.5-1,3.1-1,4.8L167.4,122.4L167.4,122.4z"/>
			<path class="st2" d="M189.1,142.5c-2.1,0-3.9-0.2-5.6-0.6c-1.7-0.4-3.2-1-4.5-1.8s-2.3-1.8-3.2-3c-0.8-1.2-1.4-2.6-1.7-4.2
				l3.3-0.7c0.2,1.3,0.7,2.4,1.3,3.3c0.7,1,1.5,1.7,2.5,2.4c1,0.6,2.2,1.1,3.5,1.4c1.3,0.3,2.7,0.5,4.2,0.5s2.9-0.2,4-0.5
				c1.2-0.3,2.2-0.8,3-1.4c0.8-0.6,1.4-1.3,1.9-2.2c0.4-0.8,0.7-1.8,0.7-2.8c0-1.2-0.3-2.1-0.9-2.9c-0.6-0.8-1.4-1.4-2.4-2
				c-1-0.5-2.1-1-3.4-1.3c-1.3-0.4-2.6-0.7-4-1.1c-1.5-0.4-2.9-0.8-4.3-1.2c-1.4-0.4-2.6-1-3.7-1.7c-1.1-0.7-2-1.6-2.7-2.6
				s-1-2.4-1-3.9c0-1.2,0.3-2.4,0.8-3.4c0.6-1.1,1.3-2,2.4-2.7c1-0.8,2.2-1.4,3.6-1.8c1.4-0.4,3-0.6,4.7-0.6c1.9,0,3.6,0.2,5.1,0.6
				s2.7,1,3.8,1.7c1.1,0.8,2,1.7,2.7,2.7c0.7,1.1,1.3,2.2,1.8,3.5l-3.3,0.8c-0.8-2.1-2-3.7-3.7-4.8c-1.7-1.1-3.8-1.7-6.5-1.7
				c-1.2,0-2.3,0.1-3.3,0.4s-1.9,0.7-2.6,1.2c-0.7,0.5-1.3,1.1-1.7,1.8c-0.4,0.7-0.6,1.5-0.6,2.4c0,1.1,0.3,2,0.8,2.7
				s1.3,1.3,2.2,1.8s2,0.9,3.2,1.2c1.2,0.3,2.4,0.7,3.7,1c1.5,0.4,3,0.8,4.5,1.2c1.5,0.5,2.8,1.1,4,1.8c1.2,0.7,2.1,1.7,2.9,2.8
				c0.7,1.1,1.1,2.5,1.1,4.1c0,1.5-0.3,2.8-0.9,4c-0.6,1.2-1.5,2.2-2.6,3.1c-1.1,0.9-2.4,1.5-4,2C192.8,142.3,191,142.5,189.1,142.5
				z"/>
			<path class="st2" d="M209.6,142v-33.9h3.3V142H209.6z"/>
			<path class="st2" d="M235.9,155.1c-2.5,0-4.7-0.2-6.6-0.6c-1.9-0.4-3.5-0.9-4.7-1.7c-1.3-0.7-2.2-1.6-2.8-2.6s-0.9-2.1-0.9-3.4
				c0-1.6,0.5-3.1,1.6-4.4c1.1-1.3,2.7-2.2,4.8-2.8c-1.7-0.4-2.8-1.1-3.5-2s-1.1-2-1.1-3.2c0-0.7,0.1-1.4,0.4-2
				c0.3-0.6,0.6-1.1,1.1-1.6c0.5-0.4,1-0.8,1.6-1.1s1.2-0.5,1.8-0.7c-0.7-0.4-1.4-0.9-2-1.6c-0.6-0.7-1.1-1.5-1.5-2.3
				c-0.4-0.9-0.7-1.8-0.9-2.8s-0.3-2-0.3-3c0-1.6,0.3-3.1,0.9-4.6c0.6-1.4,1.4-2.7,2.5-3.8c1.1-1.1,2.3-1.9,3.8-2.6
				c1.4-0.6,3-1,4.7-1c1.4,0,2.6,0.2,3.7,0.5c1.1,0.3,2.1,0.7,3,1.2c0.2-0.8,0.4-1.6,0.7-2.3c0.3-0.7,0.7-1.4,1.3-1.9s1.4-1,2.4-1.3
				s2.3-0.5,3.8-0.5h0.6v3.2h-1c-1,0-1.8,0.1-2.5,0.4c-0.7,0.2-1.2,0.6-1.6,1c-0.4,0.4-0.8,0.9-1,1.5s-0.4,1.2-0.5,2
				c0.9,0.9,1.7,2,2.3,3.4c0.6,1.3,0.9,2.9,0.9,4.7c0,1.7-0.3,3.3-0.8,4.7c-0.6,1.5-1.3,2.7-2.4,3.8c-1,1.1-2.2,1.9-3.6,2.6
				c-1.4,0.6-2.9,0.9-4.6,0.9c-0.6,0-1.3,0-1.8-0.1c-0.6-0.1-1.1-0.1-1.6-0.2c-0.5-0.1-0.9-0.2-1.2-0.3s-0.6-0.2-0.7-0.2
				c-0.5,0-1.1,0.1-1.6,0.3s-1,0.5-1.3,0.8c-0.4,0.3-0.7,0.7-0.9,1.2s-0.4,1-0.4,1.6c0,0.9,0.3,1.5,0.9,2c0.6,0.5,1.4,0.8,2.4,1
				s2.3,0.4,3.7,0.4c1.4,0.1,3,0.1,4.7,0.2c2.6,0.1,4.7,0.3,6.5,0.6s3.3,0.8,4.4,1.3c1.1,0.6,2,1.3,2.5,2.2s0.8,2,0.8,3.2
				c0,1.3-0.4,2.6-1.1,3.8c-0.7,1.2-1.7,2.2-3.1,3c-1.3,0.9-3,1.5-5,2C240.7,154.8,238.5,155.1,235.9,155.1z M235.9,152.6
				c2,0,3.8-0.2,5.3-0.5c1.6-0.3,2.9-0.8,3.9-1.4s1.9-1.3,2.4-2.1c0.6-0.8,0.8-1.7,0.8-2.6c0-0.6-0.1-1.2-0.3-1.7s-0.5-0.9-1-1.3
				c-0.5-0.4-1.1-0.7-2-0.9c-0.9-0.3-2-0.5-3.4-0.6c-1.4-0.2-3.1-0.3-5-0.4c-2-0.1-4.3-0.2-7-0.2c-0.7,0.2-1.4,0.5-2,0.8
				s-1.2,0.7-1.7,1.1c-0.5,0.5-0.9,1-1.2,1.7s-0.4,1.4-0.4,2.3c0,0.9,0.2,1.7,0.6,2.4c0.4,0.7,1.1,1.3,2,1.8s2.1,0.9,3.5,1.2
				C232,152.4,233.8,152.6,235.9,152.6z M235,128.8c2.7,0,4.8-0.8,6.3-2.4s2.3-3.9,2.3-7c0-1.1-0.2-2.3-0.5-3.3
				c-0.4-1.1-0.9-2.1-1.6-2.9c-0.7-0.9-1.6-1.6-2.7-2.1c-1.1-0.5-2.3-0.8-3.8-0.8c-1.4,0-2.7,0.3-3.8,0.8s-2,1.2-2.7,2
				c-0.7,0.9-1.3,1.8-1.6,3c-0.4,1.1-0.5,2.3-0.5,3.5c0,1.5,0.2,2.8,0.6,4s1,2.1,1.7,2.9c0.8,0.8,1.7,1.4,2.7,1.8
				C232.5,128.6,233.7,128.8,235,128.8z"/>
			<path class="st2" d="M256.7,142v-33.9h3.2v7.5c0.6-0.9,1.4-1.9,2.2-2.8c0.9-1,1.9-1.8,3-2.6c1.1-0.8,2.3-1.4,3.6-1.9
				c1.3-0.5,2.8-0.7,4.3-0.7c3,0,5.3,0.8,6.9,2.4s2.4,4.1,2.4,7.7V142H279v-24.4c0-2.4-0.5-4.2-1.5-5.3c-1-1.1-2.6-1.7-4.9-1.7
				c-2.4,0-4.7,0.7-6.8,2c-2.1,1.4-4,3.3-5.8,5.8V142H256.7z"/>
			<path class="st2" d="M308.3,142V96.1h3.3V142H308.3z"/>
			<path class="st2" d="M330.9,142.4c-1.5,0-2.8-0.2-4.2-0.6c-1.3-0.4-2.5-1-3.4-1.7c-1-0.8-1.8-1.7-2.3-2.9
				c-0.6-1.2-0.9-2.5-0.9-4.1c0-1.8,0.4-3.4,1.2-4.8c0.8-1.4,1.9-2.6,3.2-3.6c1.4-1,3-1.8,4.8-2.4s3.8-1,5.8-1.3
				c0.9-0.1,1.7-0.2,2.5-0.2s1.5-0.1,2.2-0.1s1.5,0,2.2,0s1.5,0,2.3,0c0-0.7,0-1.4,0-2.1s0-1.3-0.1-1.8c-0.1-1-0.4-1.9-0.8-2.7
				c-0.4-0.8-1-1.5-1.7-2c-0.8-0.5-1.7-1-2.9-1.2c-1.2-0.3-2.5-0.4-4.2-0.4c-1.5,0-2.9,0.1-4.1,0.3c-1.2,0.2-2.2,0.6-3,1.1
				c-0.9,0.5-1.6,1.2-2.1,2.1c-0.6,0.9-1,1.9-1.3,3.2l-3.2-0.4c0.3-1.5,0.8-2.8,1.6-4c0.8-1.1,1.7-2.1,2.9-2.9
				c1.2-0.8,2.5-1.4,4.1-1.8c1.5-0.4,3.2-0.6,5-0.6c2.1,0,4,0.2,5.6,0.6s2.9,1.1,4,2.1s1.9,2.2,2.4,3.8c0.5,1.6,0.8,3.5,0.8,5.7
				v15.7c0,1.1,0.1,2.2,0.2,3.2s0.3,2.2,0.6,3.4h-3.2c-0.1-0.3-0.2-0.8-0.3-1.4c-0.1-0.6-0.1-1.2-0.2-1.8s-0.1-1.2-0.1-1.8
				s0-1.1,0-1.5c-0.6,1-1.4,1.9-2.2,2.8c-0.9,0.9-1.8,1.6-2.9,2.2c-1.1,0.6-2.3,1.1-3.7,1.4C334,142.2,332.5,142.4,330.9,142.4z
				 M331.3,139.8c1.9,0,3.6-0.3,5.1-0.8c1.4-0.5,2.7-1.2,3.7-2.1c1-0.9,1.9-1.8,2.6-2.9c0.7-1.1,1.2-2.1,1.5-3.1v-7.6
				c-1.4,0-2.8-0.1-4.3,0c-1.4,0-2.8,0.1-4.1,0.2c-2.1,0.2-3.9,0.6-5.4,1.2c-1.5,0.5-2.8,1.2-3.8,2s-1.8,1.7-2.3,2.7
				s-0.7,2.1-0.7,3.3c0,2.3,0.6,4,1.9,5.2C326.7,139.2,328.7,139.8,331.3,139.8z"/>
			<path class="st2" d="M372.5,142.4c-2.5,0-4.7-0.6-6.5-1.7c-1.8-1.1-3.3-2.7-4.4-4.7l-1.8,5.9h-1.6V96.1h3v19.1c0.4-1,1-2,1.7-2.9
				c0.8-0.9,1.6-1.7,2.6-2.5c1-0.7,2.1-1.3,3.2-1.7c1.2-0.4,2.3-0.6,3.5-0.6c2.1,0,3.9,0.4,5.5,1.1c1.6,0.8,3,1.9,4.1,3.4
				s2,3.3,2.6,5.5s0.9,4.7,0.9,7.5c0,2.9-0.3,5.5-1,7.6c-0.7,2.2-1.6,4-2.7,5.5c-1.2,1.5-2.5,2.5-4.1,3.3
				C376.1,142.1,374.4,142.4,372.5,142.4z M372.1,139.9c1.6,0,3-0.3,4.3-0.9s2.3-1.5,3.2-2.7c0.9-1.2,1.5-2.8,2-4.7
				c0.4-1.9,0.7-4.1,0.7-6.7c0-4.8-0.8-8.5-2.5-10.9c-1.7-2.5-4.1-3.7-7.3-3.7c-1.4,0-2.6,0.2-3.8,0.7c-1.1,0.5-2.1,1.1-3,1.9
				s-1.7,1.7-2.4,2.8c-0.7,1.1-1.3,2.2-1.8,3.3v8.3c0,1.9,0.3,3.6,0.8,5.1s1.3,2.8,2.3,3.9c1,1.1,2.1,1.9,3.4,2.5
				C369.2,139.6,370.6,139.9,372.1,139.9z"/>
		</g>
		<g>
			<path class="st3" d="M74.9,87.6c0.4-1.8,0.5-3.6,0.5-5.5c0-15.7-12.7-28.4-28.4-28.4S18.6,66.4,18.6,82.1c0,2.5,0.4,4.9,1,7.3"/>
			<path class="st4" d="M19.6,89.3c-9,4.8-15.1,14.2-15.1,25.1c0,15.7,12.7,28.4,28.4,28.4c6.1,0,11.7-1.9,16.3-5.2
				c-7.3-5.1-12.1-13.6-12.1-23.3c0-1.9,0.2-3.7,0.5-5.5"/>
			<path class="st5" d="M37.7,108.9c1.4-7.3,5.7-13.6,11.6-17.7C44.6,87.9,39,86,32.9,86c-4.8,0-9.4,1.2-13.3,3.3
				C22,98.4,28.8,105.8,37.7,108.9z"/>
			<path class="st6" d="M49.3,137.7c4.6,3.3,10.3,5.2,16.3,5.2c15.7,0,28.4-12.7,28.4-28.4c0-12.4-8-23-19.1-26.8"/>
			<path class="st7" d="M49.3,91.2c5.4,3.8,9.4,9.4,11.1,16c7.4-3.9,12.9-11.1,14.6-19.6c-2.9-1-6.1-1.6-9.4-1.6
				C59.5,86,53.9,87.9,49.3,91.2z"/>
			<path class="st8" d="M61.4,114.4c0-2.5-0.4-4.9-1-7.3c-4,2.1-8.5,3.3-13.3,3.3c-3.3,0-6.4-0.6-9.4-1.6c-0.4,1.8-0.5,3.6-0.5,5.5
				c0,9.6,4.8,18.1,12.1,23.3C56.6,132.5,61.4,124,61.4,114.4z"/>
		</g>
		<path class="st9" d="M207.6,95.1v7.2h7.2v-7.2H207.6z M211.2,100.9c-1.2,0-2.2-1-2.2-2.2s1-2.2,2.2-2.2s2.2,1,2.2,2.2
			S212.4,100.9,211.2,100.9z"/>
	</g>
</g>
</svg>
